<?xml version="1.0" encoding="utf-8"?>
<!-- Generator: Adobe Illustrator 26.3.1, SVG Export Plug-In . SVG Version: 6.00 Build 0)  -->
<svg version="1.2" baseProfile="tiny" id="Capa_1" xmlns="http://www.w3.org/2000/svg" xmlns:xlink="http://www.w3.org/1999/xlink"
	 x="0px" y="0px" viewBox="0 0 595.28 841.89" overflow="visible" xml:space="preserve">
<g>
	<g>
		<path d="M211.91,370.58c-2.16-3.74-4.75-5.9-9.36-5.9c-4.82,0-9,3.46-9,8.42c0,4.68,4.82,6.84,8.5,8.5l3.6,1.58
			c7.06,3.1,13.03,6.62,13.03,15.27c0,9.5-7.63,16.78-17.07,16.78c-8.71,0-15.19-5.62-16.92-14.04l5.9-1.66
			c0.79,5.54,5.04,10.08,10.87,10.08s11.16-4.46,11.16-10.58c0-6.34-4.97-8.5-10.01-10.8l-3.31-1.44
			c-6.34-2.88-11.81-6.12-11.81-13.9c0-8.42,7.13-13.83,15.19-13.83c6.05,0,11.16,3.1,14.04,8.42L211.91,370.58z"/>
		<path d="M233,385.27h0.14c2.81-3.74,6.98-5.76,11.67-5.76c9.94,0,16.2,8.57,16.2,17.93c0,9.65-6.12,17.79-16.27,17.79
			c-4.61,0-8.86-2.02-11.59-5.69H233v23.76h-5.76v-52.85H233V385.27z M232.71,397.01c0,6.62,3.89,12.89,11.09,12.89
			c7.42,0,11.3-5.98,11.3-12.82c0-6.77-4.25-12.24-11.38-12.24C237.03,384.84,232.71,390.67,232.71,397.01z"/>
		<path d="M299.96,414.29h-5.76v-4.68h-0.14c-2.95,3.74-6.91,5.62-11.67,5.62c-9.94,0-16.2-8.42-16.2-17.79
			c0-9.65,6.12-17.93,16.27-17.93c4.61,0,8.78,2.16,11.59,5.76h0.14v-4.82h5.76V414.29z M272.1,397.01
			c0,6.62,3.89,12.89,11.09,12.89c7.42,0,11.3-5.98,11.3-12.82c0-6.77-4.25-12.24-11.38-12.24
			C276.42,384.84,272.1,390.67,272.1,397.01z"/>
		<path d="M335.75,390.53h-0.14c-2.66-3.38-5.98-5.69-10.51-5.69c-6.99,0-11.95,5.76-11.95,12.53c0,6.7,4.61,12.53,11.67,12.53
			c4.82,0,8.21-2.16,11.02-5.83h0.14v7.71c-3.31,2.23-6.7,3.46-10.73,3.46c-10.22,0-18-7.63-18-17.86
			c0-10.08,8.14-17.86,18.07-17.86c3.67,0,7.42,1.22,10.44,3.38V390.53z"/>
		<path d="M347.77,398.59c0.07,6.26,4.54,11.3,11.09,11.3c4.9,0,8.06-2.95,10.3-6.98l4.9,2.81c-3.24,6.05-8.71,9.5-15.62,9.5
			c-10.08,0-16.56-7.7-16.56-17.43c0-10.01,5.83-18.29,16.42-18.29c10.87,0,16.63,9,16.06,19.08H347.77z M368.29,393.7
			c-0.79-4.9-4.9-8.86-9.94-8.86c-4.97,0-9.58,3.96-10.3,8.86H368.29z"/>
	</g>
	<g>
		<path fill="#683C11" d="M195.87,493.57c-2.82,0-4.41-1.88-5.45-3.66c-1.13-1.88-1.88-3.66-3.1-3.66c-1.31,0-2.07,1.78-3.38,3.66
			c-1.31,1.78-3,3.66-6.2,3.66h-25.73l-2.91-12.96h21.03c1.5,0,1.5-1.22,1.6-2.53c0.09-1.31,0.38-3.19,2.35-3.19h28.55
			c1.22,0,1.22,1.69,1.22,2.82c0,1.22-0.09,2.91,0.94,2.91h20.56l-2.72,12.96H195.87z M188.92,450.93c0.19-2.91,0.38-4.79,1.13-8.36
			c0.75-3.57,2.54-7.51,5.07-10.05c6.01,2.63,11.27,13.62,11.27,21.03c0,15.87-5.54,16.34-7.51,16.34h-22.35
			c-2.44,0-8.36-0.47-8.36-16.34c0-15.21,13.62-22.63,13.62-24.41c0-2.07-1.22-3.94-1.22-6.1c0-3.19,1.69-6.2,6.1-6.2
			c3.47,0,5.92,3.66,5.92,6.85c0,6.67-6.29,12.11-7.51,18.97c-0.75,3.1-0.85,5.92-0.75,8.26H188.92z"/>
	</g>
	<g>
		<path d="M163.31,446.58c-14.58,4.02-28.96,8.7-43.1,14.06c14.07-4.34,28.29-8.17,42.62-11.49
			C162.96,448.26,163.12,447.41,163.31,446.58z"/>
		<path d="M206.92,436.65c0.71,1.18,1.36,2.41,1.93,3.67c59.03-8.97,119.31-9.21,178.4,0.09c29.72,4.57,59.02,11.47,87.81,20.23
			C390.2,428.43,296.29,420.47,206.92,436.65z"/>
	</g>
	<g>
		<path d="M283.79,450.15c-4.32-4.46-10.3-7.2-16.56-7.2c-12.1,0-21.89,10.51-21.89,22.47s9.86,22.47,22.03,22.47
			c6.12,0,12.1-2.88,16.42-7.2v7.49c-4.68,3.38-10.44,5.33-16.2,5.33c-15.34,0-28.3-12.46-28.3-27.87c0-15.55,12.75-28.3,28.3-28.3
			c6.05,0,11.38,1.73,16.2,5.33V450.15z"/>
		<path d="M299.78,433.16v29.52l0.14,0.14c2.38-3.24,5.47-5.04,9.65-5.04c9.36,0,11.52,6.77,11.52,14.69v20.09h-5.76v-19.08
			c0-5.47-0.43-10.37-7.13-10.37c-7.92,0-8.42,7.34-8.42,13.39v16.06h-5.76v-59.41H299.78z"/>
		<path d="M334.91,476.87c0.07,6.26,4.54,11.3,11.09,11.3c4.9,0,8.06-2.95,10.3-6.98l4.9,2.81c-3.24,6.05-8.71,9.5-15.62,9.5
			c-10.08,0-16.56-7.71-16.56-17.43c0-10.01,5.83-18.29,16.42-18.29c10.87,0,16.63,9,16.06,19.08H334.91z M355.43,471.97
			c-0.79-4.9-4.9-8.86-9.94-8.86c-4.97,0-9.58,3.96-10.3,8.86H355.43z"/>
		<path d="M383.08,466.57c-0.79-1.8-2.52-3.46-4.61-3.46c-2.02,0-4.18,1.58-4.18,3.74c0,3.1,3.89,4.25,7.85,5.9s7.85,4.03,7.85,9.72
			c0,6.41-5.18,11.02-11.45,11.02c-5.69,0-10.15-3.24-11.95-8.57l5.11-2.16c1.44,3.17,3.1,5.4,6.91,5.4c3.1,0,5.47-2.09,5.47-5.18
			c0-7.56-15.27-4.97-15.27-15.62c0-5.69,4.61-9.58,10.08-9.58c3.89,0,7.49,2.74,9,6.26L383.08,466.57z"/>
		<path d="M411.81,466.57c-0.79-1.8-2.52-3.46-4.61-3.46c-2.02,0-4.18,1.58-4.18,3.74c0,3.1,3.89,4.25,7.85,5.9
			c3.96,1.66,7.85,4.03,7.85,9.72c0,6.41-5.18,11.02-11.45,11.02c-5.69,0-10.15-3.24-11.95-8.57l5.11-2.16
			c1.44,3.17,3.1,5.4,6.91,5.4c3.1,0,5.47-2.09,5.47-5.18c0-7.56-15.27-4.97-15.27-15.62c0-5.69,4.61-9.58,10.08-9.58
			c3.89,0,7.49,2.74,9,6.26L411.81,466.57z"/>
	</g>
	<g>
		<path fill="#CA9E67" d="M436.46,376.18l-9.79-7.86c-0.83-0.66-2.26-0.26-3.19,0.9l-23.61,29.42c-0.93,1.16-1.02,2.65-0.19,3.31
			l9.79,7.86c0.83,0.66,2.26,0.26,3.19-0.9l23.61-29.42C437.2,378.33,437.29,376.84,436.46,376.18z"/>
		<path fill="#CA9E67" d="M437.84,371.89l-7.28-5.84c-0.62-0.49-2.02,0.23-3.14,1.62l-28.22,35.16c-1.12,1.39-1.52,2.92-0.91,3.42
			l7.28,5.84c0.62,0.49,2.02-0.23,3.14-1.62l28.22-35.16C438.05,373.92,438.46,372.39,437.84,371.89z"/>
		<path fill="#CA9E67" d="M446.48,390.27l-9.09-5.79c-0.93-0.59-2.29-0.36-2.98,0.49l-16.81,20.94c-0.69,0.86-0.61,2.24,0.16,3.02
			l7.61,7.62c0.35,0.35,0.79,0.52,1.24,0.5c0.45-0.02,0.87-0.25,1.18-0.63l19.08-23.77c0.31-0.38,0.44-0.84,0.36-1.28
			c-0.06-0.38-0.27-0.72-0.59-0.98C446.59,390.34,446.54,390.3,446.48,390.27z"/>
		<path fill="#CA9E67" d="M461.42,397.04c-0.12-0.09-0.26-0.17-0.42-0.24l-9.21-3.78c-1.07-0.44-2.65-0.03-3.37,0.87l-19.08,23.77
			c-0.72,0.9-0.77,2.52-0.1,3.46l5.73,8.1c0.26,0.37,0.6,0.58,0.95,0.6c0.35,0.01,0.69-0.18,0.98-0.54l24.59-30.64
			c0.29-0.36,0.4-0.73,0.31-1.06C461.73,397.38,461.61,397.19,461.42,397.04z"/>
		<path fill="#CA9E67" d="M389.66,387.88l9.09,5.78c0.93,0.59,2.29,0.36,2.98-0.49l16.81-20.94c0.69-0.86,0.61-2.24-0.16-3.02
			l-7.61-7.62c-0.05-0.05-0.1-0.1-0.15-0.14c-0.32-0.26-0.7-0.38-1.08-0.36c-0.45,0.02-0.87,0.25-1.18,0.63l-19.08,23.77
			c-0.31,0.38-0.44,0.84-0.36,1.28C388.98,387.22,389.24,387.61,389.66,387.88z"/>
		<path fill="#CA9E67" d="M384.34,385.12c1.07,0.44,2.65,0.03,3.37-0.87l19.08-23.77c0.72-0.9,0.77-2.52,0.11-3.46l-5.73-8.1
			c-0.1-0.14-0.21-0.25-0.32-0.35c-0.19-0.16-0.41-0.24-0.63-0.25c-0.35-0.01-0.69,0.18-0.98,0.54l-24.59,30.63
			c-0.29,0.36-0.4,0.73-0.31,1.06c0.09,0.33,0.36,0.61,0.79,0.78L384.34,385.12z"/>
	</g>
</g>
</svg>
